<svg xmlns="http://www.w3.org/2000/svg" xmlns:xlink="http://www.w3.org/1999/xlink" width="1100" zoomAndPan="magnify" viewBox="0 0 75 74.999997" height="400" preserveAspectRatio="xMidYMid meet" version="1.0"><defs><g/><clipPath id="66ae03f7f2"><path d="M 16.125 0 L 46 0 L 46 32 L 16.125 32 Z M 16.125 0 " clip-rule="nonzero"/></clipPath><clipPath id="7a73887c2c"><path d="M 48 34 L 50.332031 34 L 50.332031 38 L 48 38 Z M 48 34 " clip-rule="nonzero"/></clipPath><clipPath id="ff6b2556ca"><path d="M 24 8 L 47 8 L 47 41.570312 L 24 41.570312 Z M 24 8 " clip-rule="nonzero"/></clipPath></defs><g clip-path="url(#66ae03f7f2)"><path fill="#f6c100" d="M 40.761719 7.238281 C 40.65625 7.699219 41.796875 7.898438 42.148438 7.578125 C 43.5 6.347656 45.113281 4.914062 45.304688 3.097656 C 45.40625 2.117188 43.402344 0.816406 42.773438 1.574219 C 41.503906 3.105469 41.179688 5.425781 40.761719 7.238281 M 33.992188 7.074219 C 33.539062 4.933594 34.597656 2.585938 33.78125 0.878906 C 33.359375 0 30.296875 0.40625 30.371094 1.378906 C 30.53125 3.5 31.609375 5.558594 32.367188 7.238281 C 32.589844 7.734375 34.105469 7.605469 33.992188 7.074219 Z M 25.667969 11.25 C 24.113281 9.636719 23.445312 7.496094 22.109375 6.835938 C 21.066406 6.316406 19.203125 8.199219 19.617188 9.289062 C 20.289062 11.050781 22.476562 11.925781 24.269531 12.503906 C 24.867188 12.699219 26.101562 11.703125 25.667969 11.25 Z M 22.109375 19.5 C 20.386719 19.144531 18.382812 18.925781 16.84375 19.773438 C 16.125 20.167969 16.347656 22.125 17.164062 22.214844 C 18.839844 22.398438 20.679688 21.53125 22.304688 20.902344 C 22.742188 20.734375 22.570312 19.59375 22.109375 19.5 Z M 24.542969 27.582031 C 23.25 28.3125 21.535156 28.535156 20.65625 29.398438 C 20.089844 29.949219 21.25 31.625 21.988281 31.351562 C 23.28125 30.875 24.308594 29.449219 25.292969 28.554688 C 25.597656 28.277344 24.898438 27.382812 24.542969 27.582031 Z M 24.542969 27.582031 " fill-opacity="1" fill-rule="evenodd"/></g><g clip-path="url(#7a73887c2c)"><path fill="#1d4a8b" d="M 49.050781 37.078125 C 49.847656 36.421875 50.40625 35.863281 50.40625 35.5625 C 50.40625 35.257812 49.738281 34.722656 48.773438 34.125 C 48.800781 34.226562 48.824219 34.328125 48.847656 34.429688 C 49.007812 35.1875 49.066406 35.976562 49.066406 36.734375 L 49.066406 36.738281 C 49.066406 36.851562 49.058594 36.964844 49.050781 37.078125 " fill-opacity="1" fill-rule="evenodd"/></g><path fill="#e77813" d="M 43.640625 31.386719 C 44.574219 32.082031 44.269531 33.367188 43.792969 34.304688 C 44.617188 35.527344 44.59375 36.742188 43.832031 37.75 C 44.578125 39.0625 44.378906 39.648438 44.09375 40.390625 C 44.839844 39.824219 46.601562 38.957031 48.175781 37.765625 C 48.234375 37.425781 48.285156 37.082031 48.285156 36.738281 L 48.285156 36.734375 C 48.285156 36.019531 48.230469 35.285156 48.082031 34.589844 C 48.003906 34.226562 47.902344 33.871094 47.769531 33.535156 C 46.324219 32.726562 44.910156 31.894531 43.640625 31.386719 " fill-opacity="1" fill-rule="evenodd"/><g clip-path="url(#ff6b2556ca)"><path fill="#1d4a8b" d="M 33.054688 37.820312 C 32.410156 37.789062 31.910156 37.238281 31.9375 36.589844 C 31.96875 35.941406 32.519531 35.441406 33.167969 35.472656 C 36.433594 35.632812 38.914062 35.328125 41.390625 35.03125 L 41.390625 35.027344 C 41.53125 35.011719 41.511719 35.015625 41.882812 34.96875 C 42.523438 34.890625 43.105469 35.351562 43.183594 35.992188 C 43.257812 36.632812 42.796875 37.21875 42.15625 37.296875 C 42.109375 37.300781 42.140625 37.296875 41.671875 37.355469 L 41.667969 37.355469 C 39.082031 37.667969 36.492188 37.984375 33.054688 37.820312 M 34.160156 41.675781 C 33.511719 41.675781 32.988281 41.152344 32.988281 40.507812 C 32.988281 39.859375 33.511719 39.332031 34.160156 39.328125 C 34.28125 39.328125 34.417969 39.328125 34.5625 39.324219 C 34.867188 39.320312 35.214844 39.308594 35.597656 39.289062 C 35.90625 39.273438 36.273438 39.25 36.6875 39.21875 C 38.484375 39.082031 40.328125 38.824219 41.613281 38.46875 C 42.234375 38.296875 42.878906 38.664062 43.050781 39.285156 C 43.222656 39.90625 42.859375 40.550781 42.238281 40.722656 C 40.753906 41.132812 38.753906 41.417969 36.863281 41.5625 C 36.519531 41.589844 36.128906 41.613281 35.707031 41.632812 C 35.351562 41.652344 34.980469 41.664062 34.597656 41.671875 C 34.457031 41.671875 34.3125 41.675781 34.160156 41.675781 Z M 46.789062 16.894531 C 47.027344 18.40625 44.707031 18.78125 44.46875 17.265625 C 43.535156 12.75 39.484375 10.933594 35.570312 11.253906 C 31.898438 11.554688 28.058594 14.113281 27.144531 17.710938 C 26.664062 19.589844 27.070312 21.742188 28.09375 23.382812 C 29.046875 24.914062 30.421875 25.824219 31.757812 27.273438 C 31.980469 27.515625 32.191406 27.78125 32.386719 28.0625 C 32.980469 28.933594 33.402344 29.945312 33.59375 30.957031 C 33.707031 31.578125 33.855469 31.738281 34.179688 31.769531 C 36.535156 31.984375 39.414062 31.847656 41.71875 31.363281 C 42.351562 31.230469 42.96875 31.636719 43.101562 32.269531 C 43.234375 32.902344 42.828125 33.523438 42.195312 33.65625 C 40.691406 33.976562 37.859375 34.171875 35.261719 34.097656 C 34.710938 34.085938 34.207031 34.058594 33.765625 34.027344 C 32.90625 33.960938 31.148438 33.988281 31.339844 32.558594 C 31.472656 31.566406 31.125 30.367188 30.457031 29.394531 C 28.957031 27.214844 27.03125 26.34375 25.769531 24.023438 C 24.738281 22.136719 24.339844 19.742188 24.75 17.632812 C 25.726562 12.652344 30.882812 9.109375 35.972656 8.898438 C 40.917969 8.6875 45.847656 11.261719 46.789062 16.894531 Z M 46.789062 16.894531 " fill-opacity="1" fill-rule="evenodd"/></g><g fill="#1d4a8b" fill-opacity="1"><g transform="translate(4.084639, 60.539739)"><g><path d="M 10.875 -2.234375 C 11.144531 -1.816406 11.144531 -1.429688 10.875 -1.078125 C 10.5625 -0.660156 10.242188 -0.382812 9.921875 -0.25 C 8.898438 0.226562 7.78125 0.5 6.5625 0.5625 C 4.75 0.425781 3.28125 -0.164062 2.15625 -1.21875 C 0.65625 -2.613281 0.191406 -4.429688 0.765625 -6.671875 C 1.203125 -8.359375 2.25 -9.738281 3.90625 -10.8125 C 4.28125 -11.050781 4.675781 -11.226562 5.09375 -11.34375 C 5.519531 -11.457031 5.941406 -11.515625 6.359375 -11.515625 C 6.859375 -11.515625 7.335938 -11.4375 7.796875 -11.28125 C 8.265625 -11.125 8.6875 -10.890625 9.0625 -10.578125 C 9.351562 -10.335938 9.5625 -10.082031 9.6875 -9.8125 C 9.800781 -9.550781 9.796875 -9.320312 9.671875 -9.125 C 9.515625 -8.925781 9.285156 -8.84375 8.984375 -8.875 C 8.765625 -8.894531 8.519531 -8.960938 8.25 -9.078125 C 7.257812 -9.472656 6.378906 -9.519531 5.609375 -9.21875 C 4.835938 -8.914062 4.125 -8.238281 3.46875 -7.1875 C 3.332031 -6.957031 3.226562 -6.710938 3.15625 -6.453125 C 3.082031 -6.203125 3.023438 -5.972656 2.984375 -5.765625 C 2.847656 -5.097656 2.9375 -4.46875 3.25 -3.875 C 3.570312 -3.28125 4.0625 -2.828125 4.71875 -2.515625 C 5.226562 -2.253906 5.734375 -2.101562 6.234375 -2.0625 C 6.734375 -2.019531 7.210938 -2.039062 7.671875 -2.125 C 8.140625 -2.21875 8.582031 -2.332031 9 -2.46875 C 9.125 -2.507812 9.257812 -2.550781 9.40625 -2.59375 C 9.5625 -2.632812 9.707031 -2.664062 9.84375 -2.6875 C 10.289062 -2.738281 10.632812 -2.585938 10.875 -2.234375 Z M 10.875 -2.234375 "/></g></g></g><g fill="#1d4a8b" fill-opacity="1"><g transform="translate(17.114095, 60.539739)"><g><path d="M 10.9375 -2.34375 C 10.945312 -2.28125 10.960938 -2.21875 10.984375 -2.15625 C 10.972656 -1.800781 10.890625 -1.503906 10.734375 -1.265625 C 10.585938 -1.035156 10.382812 -0.878906 10.125 -0.796875 C 9.851562 -0.710938 9.59375 -0.722656 9.34375 -0.828125 C 9.101562 -0.929688 8.90625 -1.109375 8.75 -1.359375 C 8.582031 -1.628906 8.441406 -1.972656 8.328125 -2.390625 C 8.296875 -2.535156 8.226562 -2.671875 8.125 -2.796875 C 8.03125 -2.921875 7.863281 -2.988281 7.625 -3 C 7.34375 -3.007812 7.0625 -3.019531 6.78125 -3.03125 C 6.507812 -3.039062 6.238281 -3.050781 5.96875 -3.0625 C 5.601562 -3.082031 5.234375 -3.097656 4.859375 -3.109375 C 4.484375 -3.117188 4.113281 -3.128906 3.75 -3.140625 C 3.65625 -3.140625 3.550781 -3.097656 3.4375 -3.015625 C 3.320312 -2.941406 3.234375 -2.863281 3.171875 -2.78125 C 3.097656 -2.644531 3.023438 -2.503906 2.953125 -2.359375 C 2.878906 -2.222656 2.8125 -2.085938 2.75 -1.953125 C 2.675781 -1.828125 2.601562 -1.691406 2.53125 -1.546875 C 2.46875 -1.398438 2.390625 -1.257812 2.296875 -1.125 C 1.960938 -0.539062 1.5625 -0.359375 1.09375 -0.578125 C 0.894531 -0.648438 0.734375 -0.800781 0.609375 -1.03125 C 0.492188 -1.257812 0.488281 -1.523438 0.59375 -1.828125 C 0.925781 -2.867188 1.351562 -4.046875 1.875 -5.359375 C 2.207031 -6.203125 2.625 -7.144531 3.125 -8.1875 C 3.269531 -8.488281 3.429688 -8.800781 3.609375 -9.125 C 3.785156 -9.457031 3.976562 -9.78125 4.1875 -10.09375 C 4.40625 -10.40625 4.722656 -10.679688 5.140625 -10.921875 C 5.460938 -11.109375 5.765625 -11.203125 6.046875 -11.203125 C 6.554688 -11.203125 6.976562 -10.921875 7.3125 -10.359375 C 7.96875 -9.234375 8.609375 -8.0625 9.234375 -6.84375 C 9.859375 -5.632812 10.367188 -4.359375 10.765625 -3.015625 C 10.804688 -2.890625 10.835938 -2.769531 10.859375 -2.65625 C 10.890625 -2.539062 10.914062 -2.4375 10.9375 -2.34375 Z M 4.59375 -5.5625 L 7.265625 -5.5625 L 5.734375 -8.6875 Z M 4.59375 -5.5625 "/></g></g></g><g fill="#1d4a8b" fill-opacity="1"><g transform="translate(30.057739, 60.539739)"><g><path d="M 8.328125 -2.953125 C 8.484375 -2.867188 8.632812 -2.757812 8.78125 -2.625 C 8.925781 -2.5 9.03125 -2.335938 9.09375 -2.140625 C 9.15625 -1.953125 9.144531 -1.738281 9.0625 -1.5 C 8.96875 -1.1875 8.769531 -0.953125 8.46875 -0.796875 C 8.175781 -0.648438 7.867188 -0.617188 7.546875 -0.703125 C 7.304688 -0.765625 7.070312 -0.851562 6.84375 -0.96875 C 6.625 -1.09375 6.40625 -1.21875 6.1875 -1.34375 C 5.894531 -1.507812 5.597656 -1.679688 5.296875 -1.859375 C 5.003906 -2.046875 4.71875 -2.226562 4.4375 -2.40625 C 4.28125 -2.5 4.128906 -2.585938 3.984375 -2.671875 C 3.835938 -2.765625 3.6875 -2.859375 3.53125 -2.953125 C 3.476562 -2.984375 3.425781 -3.007812 3.375 -3.03125 C 3.332031 -3.0625 3.285156 -3.085938 3.234375 -3.109375 C 3.148438 -3.140625 3.082031 -3.175781 3.03125 -3.21875 L 2.8125 -3.3125 L 2.75 -2.484375 C 2.71875 -2.273438 2.691406 -2.070312 2.671875 -1.875 C 2.648438 -1.675781 2.628906 -1.476562 2.609375 -1.28125 C 2.566406 -0.925781 2.453125 -0.65625 2.265625 -0.46875 C 2.085938 -0.28125 1.863281 -0.191406 1.59375 -0.203125 C 1.3125 -0.210938 1.082031 -0.316406 0.90625 -0.515625 C 0.726562 -0.710938 0.625 -0.984375 0.59375 -1.328125 C 0.40625 -3.867188 0.597656 -6.644531 1.171875 -9.65625 C 1.242188 -10.0625 1.382812 -10.328125 1.59375 -10.453125 C 1.707031 -10.503906 1.832031 -10.53125 1.96875 -10.53125 C 2.144531 -10.53125 2.347656 -10.492188 2.578125 -10.421875 C 2.671875 -10.378906 2.769531 -10.367188 2.875 -10.390625 C 2.988281 -10.421875 3.066406 -10.445312 3.109375 -10.46875 C 4.140625 -10.863281 5.257812 -10.921875 6.46875 -10.640625 C 7.738281 -10.328125 8.515625 -9.519531 8.796875 -8.21875 C 9.046875 -7.03125 8.65625 -6.03125 7.625 -5.21875 C 7.5 -5.132812 7.367188 -5.046875 7.234375 -4.953125 C 7.097656 -4.867188 6.957031 -4.78125 6.8125 -4.6875 C 6.738281 -4.644531 6.660156 -4.597656 6.578125 -4.546875 C 6.503906 -4.503906 6.429688 -4.460938 6.359375 -4.421875 L 6.140625 -4.28125 L 6.359375 -4.15625 C 6.460938 -4.09375 6.566406 -4.023438 6.671875 -3.953125 C 6.773438 -3.890625 6.878906 -3.832031 6.984375 -3.78125 C 7.203125 -3.625 7.421875 -3.476562 7.640625 -3.34375 C 7.867188 -3.207031 8.097656 -3.078125 8.328125 -2.953125 Z M 3.109375 -6.25 C 4.296875 -6.40625 5.320312 -6.785156 6.1875 -7.390625 C 6.488281 -7.597656 6.617188 -7.847656 6.578125 -8.140625 C 6.535156 -8.398438 6.363281 -8.582031 6.0625 -8.6875 C 5.101562 -9.007812 4.257812 -8.921875 3.53125 -8.421875 C 3.238281 -8.234375 3.066406 -8.003906 3.015625 -7.734375 C 2.960938 -7.472656 2.941406 -7.21875 2.953125 -6.96875 C 2.953125 -6.863281 2.953125 -6.765625 2.953125 -6.671875 C 2.953125 -6.585938 2.945312 -6.503906 2.9375 -6.421875 L 2.921875 -6.21875 Z M 3.109375 -6.25 "/></g></g></g><g fill="#1d4a8b" fill-opacity="1"><g transform="translate(41.156464, 60.539739)"><g><path d="M 6.859375 -2.109375 C 6.984375 -1.785156 6.929688 -1.457031 6.703125 -1.125 C 6.679688 -1.101562 6.660156 -1.078125 6.640625 -1.046875 C 6.617188 -1.015625 6.597656 -0.988281 6.578125 -0.96875 C 5.078125 0.113281 3.644531 0.421875 2.28125 -0.046875 C 1.894531 -0.179688 1.582031 -0.363281 1.34375 -0.59375 C 1.101562 -0.820312 0.921875 -1.070312 0.796875 -1.34375 C 0.679688 -1.625 0.609375 -1.898438 0.578125 -2.171875 C 0.546875 -2.441406 0.53125 -2.679688 0.53125 -2.890625 C 0.5625 -3.773438 0.609375 -4.664062 0.671875 -5.5625 C 0.742188 -6.46875 0.828125 -7.351562 0.921875 -8.21875 L 0.953125 -8.703125 C 0.984375 -9.023438 1.035156 -9.347656 1.109375 -9.671875 C 1.179688 -10.003906 1.269531 -10.351562 1.375 -10.71875 C 1.519531 -11.269531 1.8125 -11.546875 2.25 -11.546875 C 2.269531 -11.546875 2.289062 -11.546875 2.3125 -11.546875 C 2.550781 -11.523438 2.742188 -11.429688 2.890625 -11.265625 C 3.035156 -11.097656 3.117188 -10.875 3.140625 -10.59375 C 3.179688 -10.125 3.207031 -9.65625 3.21875 -9.1875 C 3.238281 -8.726562 3.257812 -8.285156 3.28125 -7.859375 C 3.28125 -7.691406 3.28125 -7.53125 3.28125 -7.375 C 3.28125 -7.21875 3.285156 -7.070312 3.296875 -6.9375 C 3.296875 -6.726562 3.296875 -6.519531 3.296875 -6.3125 C 3.296875 -6.113281 3.296875 -5.921875 3.296875 -5.734375 C 3.296875 -5.304688 3.296875 -4.890625 3.296875 -4.484375 C 3.296875 -4.078125 3.296875 -3.675781 3.296875 -3.28125 C 3.304688 -3.125 3.320312 -2.992188 3.34375 -2.890625 C 3.363281 -2.785156 3.410156 -2.703125 3.484375 -2.640625 C 3.566406 -2.566406 3.664062 -2.523438 3.78125 -2.515625 C 3.894531 -2.515625 4.023438 -2.523438 4.171875 -2.546875 C 4.273438 -2.554688 4.375 -2.566406 4.46875 -2.578125 C 4.570312 -2.597656 4.679688 -2.609375 4.796875 -2.609375 C 4.898438 -2.628906 5.003906 -2.644531 5.109375 -2.65625 C 5.222656 -2.675781 5.332031 -2.691406 5.4375 -2.703125 C 5.707031 -2.722656 5.941406 -2.710938 6.140625 -2.671875 C 6.503906 -2.585938 6.742188 -2.398438 6.859375 -2.109375 Z M 6.859375 -2.109375 "/></g></g></g><g fill="#1d4a8b" fill-opacity="1"><g transform="translate(50.038421, 60.539739)"><g><path d="M 6.09375 -10.65625 C 6.726562 -10.5 7.3125 -10.304688 7.84375 -10.078125 C 8.382812 -9.847656 8.847656 -9.550781 9.234375 -9.1875 C 9.628906 -8.820312 9.941406 -8.359375 10.171875 -7.796875 C 10.398438 -7.242188 10.539062 -6.566406 10.59375 -5.765625 C 10.476562 -4.484375 10.113281 -3.46875 9.5 -2.71875 C 9.375 -2.582031 9.253906 -2.445312 9.140625 -2.3125 C 9.023438 -2.175781 8.90625 -2.039062 8.78125 -1.90625 L 8.5 -1.578125 C 7.59375 -0.503906 6.398438 -0.0625 4.921875 -0.25 C 4.816406 -0.25 4.710938 -0.257812 4.609375 -0.28125 C 4.503906 -0.300781 4.394531 -0.320312 4.28125 -0.34375 L 4.234375 -0.359375 C 2.859375 -0.640625 1.847656 -1.351562 1.203125 -2.5 C 0.835938 -3.132812 0.617188 -3.84375 0.546875 -4.625 C 0.472656 -5.40625 0.554688 -6.132812 0.796875 -6.8125 C 1.578125 -9.050781 3.0625 -10.316406 5.25 -10.609375 L 5.40625 -10.640625 C 5.476562 -10.648438 5.550781 -10.65625 5.625 -10.65625 C 5.707031 -10.664062 5.785156 -10.671875 5.859375 -10.671875 C 5.941406 -10.671875 6.019531 -10.664062 6.09375 -10.65625 Z M 8 -5.53125 L 8.015625 -5.578125 L 8.015625 -5.625 C 7.953125 -6.132812 7.816406 -6.53125 7.609375 -6.8125 C 7.410156 -7.09375 7.085938 -7.320312 6.640625 -7.5 C 6.222656 -7.675781 5.863281 -7.835938 5.5625 -7.984375 C 5.15625 -8.203125 4.800781 -8.273438 4.5 -8.203125 C 4.207031 -8.128906 3.929688 -7.90625 3.671875 -7.53125 C 2.910156 -6.375 2.722656 -5.253906 3.109375 -4.171875 C 3.242188 -3.804688 3.457031 -3.5 3.75 -3.25 C 4.039062 -3.007812 4.378906 -2.851562 4.765625 -2.78125 C 4.898438 -2.75 5.035156 -2.734375 5.171875 -2.734375 C 5.785156 -2.734375 6.289062 -2.960938 6.6875 -3.421875 C 6.726562 -3.453125 6.765625 -3.484375 6.796875 -3.515625 C 6.828125 -3.554688 6.859375 -3.585938 6.890625 -3.609375 C 6.972656 -3.710938 7.054688 -3.804688 7.140625 -3.890625 C 7.222656 -3.984375 7.296875 -4.082031 7.359375 -4.1875 C 7.441406 -4.34375 7.519531 -4.5 7.59375 -4.65625 C 7.675781 -4.8125 7.753906 -4.96875 7.828125 -5.125 C 7.847656 -5.195312 7.875 -5.265625 7.90625 -5.328125 C 7.9375 -5.398438 7.96875 -5.46875 8 -5.53125 Z M 8 -5.53125 "/></g></g></g><g fill="#1d4a8b" fill-opacity="1"><g transform="translate(62.610219, 60.539739)"><g><path d="M 7.65625 -3.453125 C 7.832031 -2.773438 7.78125 -2.164062 7.5 -1.625 C 7.226562 -1.09375 6.773438 -0.722656 6.140625 -0.515625 C 5.441406 -0.265625 4.597656 -0.117188 3.609375 -0.078125 C 3.160156 -0.0664062 2.757812 -0.171875 2.40625 -0.390625 C 2.0625 -0.617188 1.785156 -0.847656 1.578125 -1.078125 C 1.347656 -1.328125 1.207031 -1.597656 1.15625 -1.890625 C 1.101562 -2.191406 1.144531 -2.460938 1.28125 -2.703125 C 1.507812 -3.097656 1.890625 -3.296875 2.421875 -3.296875 C 2.554688 -3.296875 2.695312 -3.285156 2.84375 -3.265625 C 2.90625 -3.242188 2.96875 -3.222656 3.03125 -3.203125 C 3.09375 -3.191406 3.15625 -3.175781 3.21875 -3.15625 C 3.476562 -3.082031 3.738281 -3.019531 4 -2.96875 C 4.269531 -2.925781 4.550781 -2.945312 4.84375 -3.03125 L 5.3125 -3.171875 L 5.25 -3.328125 C 5.125 -3.628906 4.945312 -3.847656 4.71875 -3.984375 C 4.488281 -4.117188 4.25 -4.222656 4 -4.296875 C 3.019531 -4.597656 2.132812 -5.148438 1.34375 -5.953125 C 0.757812 -6.535156 0.488281 -7.195312 0.53125 -7.9375 C 0.570312 -8.65625 0.898438 -9.269531 1.515625 -9.78125 C 2.691406 -10.75 4.03125 -11.054688 5.53125 -10.703125 C 6.195312 -10.554688 6.691406 -10.21875 7.015625 -9.6875 C 7.140625 -9.46875 7.210938 -9.234375 7.234375 -8.984375 C 7.234375 -8.898438 7.222656 -8.8125 7.203125 -8.71875 C 7.179688 -8.625 7.140625 -8.550781 7.078125 -8.5 C 6.960938 -8.414062 6.785156 -8.421875 6.546875 -8.515625 C 6.265625 -8.628906 5.914062 -8.738281 5.5 -8.84375 C 5.09375 -8.945312 4.660156 -8.941406 4.203125 -8.828125 C 3.984375 -8.785156 3.769531 -8.71875 3.5625 -8.625 C 3.363281 -8.53125 3.175781 -8.429688 3 -8.328125 C 2.800781 -8.210938 2.703125 -8.0625 2.703125 -7.875 C 2.703125 -7.695312 2.796875 -7.546875 2.984375 -7.421875 L 3.296875 -7.234375 C 3.554688 -7.078125 3.816406 -6.925781 4.078125 -6.78125 C 4.335938 -6.632812 4.609375 -6.503906 4.890625 -6.390625 C 6.410156 -5.773438 7.332031 -4.796875 7.65625 -3.453125 Z M 7.65625 -3.453125 "/></g></g></g><g fill="#e77813" fill-opacity="1"><g transform="translate(14.982323, 73.138693)"><g><path d="M 3.203125 -4.203125 L 3.203125 -3.703125 L 1.9375 -3.703125 L 1.9375 0 L 1.40625 0 L 1.40625 -3.703125 L 0.125 -3.703125 L 0.125 -4.203125 Z M 3.203125 -4.203125 "/></g></g></g><g fill="#e77813" fill-opacity="1"><g transform="translate(21.315932, 73.138693)"><g><path d="M 1.09375 -0.5 L 3.015625 -0.5 L 3.015625 0 L 0.578125 0 L 0.578125 -4.203125 L 2.953125 -4.203125 L 2.953125 -3.703125 L 1.09375 -3.703125 L 1.09375 -2.40625 L 2.796875 -2.40625 L 2.796875 -1.90625 L 1.09375 -1.90625 Z M 1.09375 -0.5 "/></g></g></g><g fill="#e77813" fill-opacity="1"><g transform="translate(27.631561, 73.138693)"><g><path d="M 3.515625 0 L 3.09375 -1.015625 L 1.078125 -1.015625 L 0.65625 0 L 0.109375 0 L 1.8125 -4.203125 L 2.3125 -4.203125 L 4.078125 0 Z M 2.078125 -3.46875 L 1.265625 -1.484375 L 2.890625 -1.484375 Z M 2.078125 -3.46875 "/></g></g></g><g fill="#e77813" fill-opacity="1"><g transform="translate(34.810374, 73.138693)"><g><path d="M 2.4375 0.0625 C 2.125 0.0625 1.835938 0.0078125 1.578125 -0.09375 C 1.316406 -0.195312 1.085938 -0.34375 0.890625 -0.53125 C 0.703125 -0.726562 0.550781 -0.957031 0.4375 -1.21875 C 0.332031 -1.488281 0.28125 -1.78125 0.28125 -2.09375 C 0.28125 -2.414062 0.332031 -2.707031 0.4375 -2.96875 C 0.550781 -3.226562 0.703125 -3.457031 0.890625 -3.65625 C 1.085938 -3.851562 1.316406 -4.003906 1.578125 -4.109375 C 1.835938 -4.210938 2.125 -4.265625 2.4375 -4.265625 C 2.757812 -4.265625 3.054688 -4.203125 3.328125 -4.078125 C 3.597656 -3.960938 3.828125 -3.789062 4.015625 -3.5625 C 4.210938 -3.34375 4.347656 -3.082031 4.421875 -2.78125 L 3.890625 -2.78125 C 3.773438 -3.082031 3.585938 -3.316406 3.328125 -3.484375 C 3.078125 -3.660156 2.78125 -3.75 2.4375 -3.75 C 2.125 -3.75 1.84375 -3.675781 1.59375 -3.53125 C 1.351562 -3.394531 1.164062 -3.203125 1.03125 -2.953125 C 0.894531 -2.703125 0.828125 -2.414062 0.828125 -2.09375 C 0.828125 -1.769531 0.894531 -1.484375 1.03125 -1.234375 C 1.164062 -0.992188 1.351562 -0.800781 1.59375 -0.65625 C 1.84375 -0.519531 2.125 -0.453125 2.4375 -0.453125 C 2.789062 -0.453125 3.097656 -0.539062 3.359375 -0.71875 C 3.617188 -0.90625 3.800781 -1.160156 3.90625 -1.484375 L 4.453125 -1.484375 C 4.367188 -1.171875 4.226562 -0.894531 4.03125 -0.65625 C 3.84375 -0.425781 3.613281 -0.25 3.34375 -0.125 C 3.070312 0 2.769531 0.0625 2.4375 0.0625 Z M 2.4375 0.0625 "/></g></g></g><g fill="#e77813" fill-opacity="1"><g transform="translate(42.46274, 73.138693)"><g><path d="M 3.28125 -4.203125 L 3.796875 -4.203125 L 3.796875 0 L 3.28125 0 L 3.28125 -1.90625 L 1.09375 -1.90625 L 1.09375 0 L 0.578125 0 L 0.578125 -4.203125 L 1.09375 -4.203125 L 1.09375 -2.40625 L 3.28125 -2.40625 Z M 3.28125 -4.203125 "/></g></g></g><g fill="#e77813" fill-opacity="1"><g transform="translate(49.833372, 73.138693)"><g><path d="M 1.09375 -0.5 L 3.015625 -0.5 L 3.015625 0 L 0.578125 0 L 0.578125 -4.203125 L 2.953125 -4.203125 L 2.953125 -3.703125 L 1.09375 -3.703125 L 1.09375 -2.40625 L 2.796875 -2.40625 L 2.796875 -1.90625 L 1.09375 -1.90625 Z M 1.09375 -0.5 "/></g></g></g><g fill="#e77813" fill-opacity="1"><g transform="translate(56.149001, 73.138693)"><g><path d="M 3.015625 0 L 2.0625 -1.640625 L 1.09375 -1.640625 L 1.09375 0 L 0.578125 0 L 0.578125 -4.203125 L 2.171875 -4.203125 C 2.429688 -4.203125 2.664062 -4.144531 2.875 -4.03125 C 3.082031 -3.925781 3.242188 -3.773438 3.359375 -3.578125 C 3.472656 -3.378906 3.53125 -3.160156 3.53125 -2.921875 C 3.53125 -2.617188 3.445312 -2.359375 3.28125 -2.140625 C 3.113281 -1.929688 2.890625 -1.785156 2.609375 -1.703125 L 3.609375 0 Z M 1.09375 -3.703125 L 1.09375 -2.140625 L 2.140625 -2.140625 C 2.398438 -2.140625 2.609375 -2.210938 2.765625 -2.359375 C 2.921875 -2.503906 3 -2.691406 3 -2.921875 C 3 -3.148438 2.921875 -3.335938 2.765625 -3.484375 C 2.609375 -3.628906 2.398438 -3.703125 2.140625 -3.703125 Z M 1.09375 -3.703125 "/></g></g></g></svg>