<svg xmlns="http://www.w3.org/2000/svg" xmlns:xlink="http://www.w3.org/1999/xlink" width="60" zoomAndPan="magnify" viewBox="0 0 375 374.999991" height="500" preserveAspectRatio="xMidYMid meet" version="1.0"><defs><clipPath id="73e45f4663"><path d="M 231 225 L 236.320312 225 L 236.320312 234 L 231 234 Z M 231 225 " clip-rule="nonzero"/></clipPath><clipPath id="e97c61513c"><path d="M 162 153 L 226 153 L 226 246.816406 L 162 246.816406 Z M 162 153 " clip-rule="nonzero"/></clipPath></defs><path fill="#f6c100" d="M 208.785156 148.867188 C 208.480469 150.1875 211.722656 150.753906 212.722656 149.839844 C 216.554688 146.347656 221.140625 142.273438 221.679688 137.113281 C 221.96875 134.335938 216.28125 130.632812 214.496094 132.785156 C 210.890625 137.136719 209.96875 143.730469 208.785156 148.867188 M 189.558594 148.410156 C 188.277344 142.332031 191.28125 135.667969 188.960938 130.820312 C 187.761719 128.320312 179.066406 129.46875 179.273438 132.238281 C 179.726562 138.261719 182.792969 144.105469 184.945312 148.875 C 185.578125 150.285156 189.878906 149.921875 189.558594 148.410156 Z M 165.917969 160.265625 C 161.507812 155.683594 159.613281 149.609375 155.816406 147.726562 C 152.851562 146.257812 147.5625 151.605469 148.742188 154.699219 C 150.648438 159.703125 156.859375 162.183594 161.953125 163.832031 C 163.644531 164.378906 167.152344 161.546875 165.917969 160.265625 Z M 155.816406 183.691406 C 150.929688 182.679688 145.238281 182.066406 140.863281 184.46875 C 138.820312 185.589844 139.457031 191.152344 141.773438 191.40625 C 146.53125 191.929688 151.757812 189.457031 156.367188 187.675781 C 157.617188 187.195312 157.128906 183.964844 155.816406 183.691406 Z M 162.722656 206.644531 C 159.050781 208.714844 154.183594 209.355469 151.6875 211.796875 C 150.082031 213.363281 153.375 218.125 155.476562 217.351562 C 159.140625 215.996094 162.0625 211.945312 164.859375 209.402344 C 165.722656 208.621094 163.734375 206.074219 162.722656 206.644531 Z M 162.722656 206.644531 " fill-opacity="1" fill-rule="evenodd"/><g clip-path="url(#73e45f4663)"><path fill="#1d4a8b" d="M 232.328125 233.609375 C 234.589844 231.75 236.175781 230.160156 236.167969 229.304688 C 236.167969 228.4375 234.277344 226.925781 231.539062 225.226562 C 231.613281 225.511719 231.679688 225.800781 231.742188 226.089844 C 232.195312 228.238281 232.363281 230.480469 232.363281 232.636719 L 232.363281 232.644531 C 232.363281 232.96875 232.347656 233.289062 232.328125 233.609375 " fill-opacity="1" fill-rule="evenodd"/></g><path fill="#e77813" d="M 216.953125 217.441406 C 219.605469 219.425781 218.738281 223.066406 217.386719 225.730469 C 219.730469 229.203125 219.664062 232.65625 217.503906 235.511719 C 219.625 239.25 219.050781 240.910156 218.242188 243.019531 C 220.359375 241.410156 225.371094 238.945312 229.835938 235.5625 C 230.007812 234.59375 230.144531 233.617188 230.144531 232.644531 L 230.144531 232.636719 C 230.144531 230.605469 229.992188 228.519531 229.574219 226.550781 C 229.351562 225.511719 229.058594 224.5 228.679688 223.546875 C 224.582031 221.253906 220.5625 218.894531 216.953125 217.441406 " fill-opacity="1" fill-rule="evenodd"/><g clip-path="url(#e97c61513c)"><path fill="#1d4a8b" d="M 186.902344 235.710938 C 185.066406 235.625 183.644531 234.058594 183.730469 232.222656 C 183.816406 230.382812 185.375 228.964844 187.214844 229.054688 C 196.5 229.503906 203.539062 228.644531 210.566406 227.792969 L 210.566406 227.789062 C 210.964844 227.742188 210.910156 227.75 211.964844 227.621094 C 213.789062 227.402344 215.441406 228.703125 215.65625 230.523438 C 215.871094 232.347656 214.566406 234.007812 212.746094 234.226562 C 212.613281 234.242188 212.695312 234.234375 211.371094 234.394531 L 211.359375 234.394531 C 204.015625 235.289062 196.664062 236.183594 186.902344 235.710938 M 190.03125 246.664062 C 188.195312 246.667969 186.703125 245.183594 186.703125 243.34375 C 186.703125 241.503906 188.195312 240.011719 190.03125 240.003906 C 190.378906 240.003906 190.765625 240 191.175781 239.992188 C 192.046875 239.976562 193.035156 239.941406 194.117188 239.890625 C 195 239.847656 196.035156 239.78125 197.21875 239.691406 C 202.3125 239.300781 207.550781 238.566406 211.203125 237.558594 C 212.972656 237.070312 214.800781 238.109375 215.289062 239.871094 C 215.773438 241.640625 214.738281 243.46875 212.972656 243.953125 C 208.757812 245.117188 203.078125 245.9375 197.710938 246.347656 C 196.734375 246.421875 195.632812 246.488281 194.429688 246.546875 C 193.421875 246.597656 192.367188 246.632812 191.28125 246.648438 C 190.882812 246.65625 190.464844 246.660156 190.03125 246.664062 Z M 225.898438 176.292969 C 226.578125 180.589844 219.992188 181.652344 219.308594 177.347656 C 216.65625 164.53125 205.15625 159.363281 194.046875 160.277344 C 183.617188 161.128906 172.714844 168.398438 170.109375 178.609375 C 168.746094 183.953125 169.902344 190.066406 172.804688 194.714844 C 175.523438 199.070312 179.417969 201.652344 183.214844 205.773438 C 183.847656 206.457031 184.445312 207.210938 184.996094 208.011719 C 186.691406 210.476562 187.886719 213.359375 188.425781 216.234375 C 188.753906 217.984375 189.175781 218.445312 190.097656 218.53125 C 196.785156 219.140625 204.953125 218.761719 211.496094 217.378906 C 213.292969 217 215.054688 218.15625 215.429688 219.953125 C 215.804688 221.75 214.648438 223.519531 212.851562 223.898438 C 208.585938 224.796875 200.542969 225.363281 193.164062 225.148438 C 191.605469 225.105469 190.171875 225.039062 188.914062 224.945312 C 186.476562 224.761719 181.488281 224.835938 182.027344 220.777344 C 182.402344 217.960938 181.417969 214.546875 179.523438 211.792969 C 175.265625 205.601562 169.796875 203.132812 166.207031 196.539062 C 163.285156 191.1875 162.148438 184.378906 163.320312 178.390625 C 166.089844 164.246094 180.730469 154.1875 195.179688 153.582031 C 209.226562 152.992188 223.226562 160.300781 225.898438 176.292969 Z M 225.898438 176.292969 " fill-opacity="1" fill-rule="evenodd"/></g></svg>